# xmcd
#
# Track frame offsets:
#	150
#	18682
#	34108
#	50768
#	69119
#	87534
#	101766
#	123926
#	141262
#	164155
#	185474
#	203261
#	225170
#	240192
#	259907
#	278036
#	300507
#	313118
#	329921
#
# Disc length: 4627 seconds
#
# Revision: 1
# Processed by: cddbd v1.5.1PL0 Copyright (c) Steve Scherf et al.
# Submitted via: audiograbber 1.83.01
#
DISCID=0b121113
DTITLE=Various Artist - TTFP-07
DYEAR=1900
DGENRE=Country
TTITLE0=Shania Twain - Any Man Of Mine
TTITLE1=Leann Rimes - Big Deal
TTITLE2=Sara Evans - Born To Fly
TTITLE3=Faith Hill - Breathe
TTITLE4=Jo Dee Messina - Burn
TTITLE5=Leann Rimes - But Do I Love You
TTITLE6=Dixie Chicks - Cowboy Take Me Away
TTITLE7=Garth Brooks - The Dance
TTITLE8=Shania Twain - From This Moment On
TTITLE9=Dixie Chicks - Goodbye Earl
TTITLE10=Tim McGraw - Grown Men Don't Cry
TTITLE11=Brad Paisley - He Didn't Have To Be
TTITLE12=Kershaw and Morgan - He Drinks Tequila
TTITLE13=Leann Rimes - How Do I Live
TTITLE14=Lee Ann Womack - I Hope You Dance
TTITLE15=Lee Ann Womack - I Know Why The River Runs
TTITLE16=Dolly Parton - I Will Always Love You
TTITLE17=Garth Brooks - If Tomorrow Never Comes
TTITLE18=Travis Tritt - It's A Great Day To Be Alive
EXTD=
EXTT0=
EXTT1=
EXTT2=
EXTT3=
EXTT4=
EXTT5=
EXTT6=
EXTT7=
EXTT8=
EXTT9=
EXTT10=
EXTT11=
EXTT12=
EXTT13=
EXTT14=
EXTT15=
EXTT16=
EXTT17=
EXTT18=
PLAYORDER=
